<svg xmlns="http://www.w3.org/2000/svg" width="401.845" height="199.75" viewBox="0 0 401.845 199.75"><g transform="translate(-870 -318.125)"><circle cx="10" cy="10" r="10" transform="translate(1251.845 448.125)" fill="#fff"/><path d="M1010.91,299.875a10,10,0,0,0,10-10V240.126a50,50,0,1,0-19.994-40.251h-.006v90a10,10,0,0,0,10,10Zm40-129.75a30,30,0,1,1-30,30,30,30,0,0,1,30-30Z" transform="translate(150.93 218)" fill="#fff"/><path d="M940.915,170.125a30,30,0,1,1-30,30,30,30,0,0,1,30-30m0-20a50,50,0,1,0,50,50,50,50,0,0,0-50-50Z" transform="translate(150.93 218)" fill="#fff"/><path d="M879.085,149.875a50,50,0,0,0-50,50c0,.042,0,.083,0,.125h0v40.235A9.765,9.765,0,0,0,838.85,250h.47a9.765,9.765,0,0,0,9.765-9.765v-40.11h.006c0-.084-.006-.166-.006-.25a30.034,30.034,0,0,1,30-30q.7,0,1.392.032a9.838,9.838,0,0,0,10.438-9.742V159.7a9.768,9.768,0,0,0-9.253-9.759Q880.382,149.875,879.085,149.875Z" transform="translate(150.93 218)" fill="#fff"/><path d="M809.085,100.125a10,10,0,0,0-10,10v49.749a50,50,0,1,0,19.994,40.251h.006v-90A10,10,0,0,0,809.085,100.125Zm-40,129.75a30,30,0,1,1,30-30,30,30,0,0,1-30,30Z" transform="translate(150.93 218)" fill="#fff"/></g></svg>