<svg xmlns="http://www.w3.org/2000/svg" viewBox="0 0 401.83 199.75"><defs><style>.cls-1{fill:#415aff;}</style></defs><title>Element 2</title><g id="Ebene_2" data-name="Ebene 2"><g id="Ebene_1-2" data-name="Ebene 1"><circle id="Dot" class="cls-1" cx="391.83" cy="140" r="10"/><path id="p" class="cls-1" d="M291.83,199.75a10,10,0,0,0,10-10V140a50,50,0,1,0-20-40.25h0v90A10,10,0,0,0,291.83,199.75ZM331.83,70a30,30,0,1,1-30,30A30,30,0,0,1,331.83,70Z"/><path id="o" class="cls-1" d="M221.83,70a30,30,0,1,1-30,30,30,30,0,0,1,30-30Zm0-20a50,50,0,1,0,50,50,50,50,0,0,0-50-50Z"/><path id="r" class="cls-1" d="M160,49.75a50,50,0,0,0-50,50v.13h0v40.23a9.77,9.77,0,0,0,9.76,9.77h.48a9.77,9.77,0,0,0,9.76-9.77V100h0c0-.08,0-.17,0-.25a30,30,0,0,1,30-30c.47,0,.93,0,1.39,0A9.84,9.84,0,0,0,171.83,60v-.46a9.77,9.77,0,0,0-9.25-9.76C161.72,49.77,160.86,49.75,160,49.75Z"/><path id="d" class="cls-1" d="M90,0A10,10,0,0,0,80,10V59.75A50,50,0,1,0,100,100h0V10A10,10,0,0,0,90,0ZM50,129.75a30,30,0,1,1,30-30A30,30,0,0,1,50,129.75Z"/></g></g></svg>