<svg xmlns="http://www.w3.org/2000/svg" width="25.658" height="25.465" viewBox="0 0 25.658 25.465"><defs><style>.a{fill:#fff;stroke:#8633ff;stroke-width:2px;}</style></defs><path class="a" d="M25.45,1.848a9.059,9.059,0,0,1-2.991,5.837L18.4,11.294a3.3,3.3,0,0,0-1.11,2.466v4.83a1.522,1.522,0,0,1-.71,1.519l-4.9,3.2a1.2,1.2,0,0,1-1.7-.91V13.759a3.3,3.3,0,0,0-1.11-2.466L4.8,7.685A9.048,9.048,0,0,1,1.813,1.848,1.674,1.674,0,0,1,3.476,0H23.788A1.677,1.677,0,0,1,25.45,1.848Z" transform="translate(-0.802 1)"/></svg>