<svg xmlns="http://www.w3.org/2000/svg" width="24" height="24" viewBox="0 0 24 24"><g transform="translate(-325 -101)"><path d="M12,0A12,12,0,1,1,0,12,12,12,0,0,1,12,0Z" transform="translate(325 101)" fill="#fff"/><g transform="translate(330.393 107.599)" fill="#5f52f5"><path d="M 6.389399528503418 11.50266170501709 C 6.346219062805176 11.50266170501709 6.302689075469971 11.49818134307861 6.260029315948486 11.48935127258301 C 5.97000789642334 11.42931652069092 5.757132053375244 11.17135334014893 5.752999305725098 10.87541675567627 L 5.752999305725098 6.755001544952393 L 5.752999305725098 6.255001544952393 L 5.252999305725098 6.255001544952393 L 1.132583856582642 6.255001544952393 C 0.8366474509239197 6.250868797302246 0.5786839723587036 6.03799295425415 0.5186492800712585 5.747971534729004 C 0.4584493041038513 5.457151412963867 0.6117293238639832 5.15852165222168 0.8830993175506592 5.037891387939453 L 0.8863093256950378 5.036471366882324 L 0.889499306678772 5.03499174118042 L 10.62127685546875 0.5440930724143982 C 10.68796443939209 0.5224546790122986 10.75712966918945 0.5115015506744385 10.82726955413818 0.5115015506744385 C 11.00606918334961 0.5115015506744385 11.17413902282715 0.5811015367507935 11.30050945281982 0.7074815630912781 C 11.47995567321777 0.8869186043739319 11.54214382171631 1.154772877693176 11.46136474609375 1.39438784122467 L 9.64103889465332 5.33743143081665 L 6.973019123077393 11.11848163604736 L 6.971539497375488 11.12168121337891 L 6.970109462738037 11.12490177154541 C 6.868099212646484 11.35439109802246 6.640149116516113 11.50266170501709 6.389399528503418 11.50266170501709 Z" stroke="none"/><path d="M 10.82725143432617 1.011501312255859 C 10.81632900238037 1.011503219604492 10.80547046661377 1.012575149536133 10.79477024078369 1.01469898223877 L 1.0989990234375 5.4889817237854 L 1.092618942260742 5.491931438446045 L 1.086199760437012 5.494791507720947 C 1.028169631958008 5.520581722259521 0.9953994750976563 5.584441661834717 1.008269309997559 5.646631717681885 C 1.020967483520508 5.707980632781982 1.075100898742676 5.753189086914063 1.137533187866211 5.755001544952393 L 5.252999305725098 5.755001544952393 L 6.252999305725098 5.755001544952393 L 6.252999305725098 6.755001544952393 L 6.252999305725098 10.87046813964844 C 6.254811763763428 10.93289947509766 6.30001974105835 10.98703384399414 6.36130952835083 10.99971199035645 C 6.3707594871521 11.00167179107666 6.380199432373047 11.00266170501709 6.389389514923096 11.00266170501709 C 6.429929256439209 11.00266170501709 6.48668909072876 10.98148155212402 6.513219356536865 10.92180156707764 L 6.516079425811768 10.91536140441895 L 6.519029140472412 10.90896129608154 L 9.187079429626465 5.127851486206055 L 10.99240016937256 1.21730899810791 C 11.00478458404541 1.161493301391602 10.9880313873291 1.102094650268555 10.94695949554443 1.061031341552734 C 10.90387725830078 1.017949104309082 10.85347557067871 1.011504173278809 10.82725143432617 1.011501312255859 M 10.82726860046387 0.01150321960449219 C 11.13202285766602 0.01151561737060547 11.43093395233154 0.1307859420776367 11.65406894683838 0.3539218902587891 C 11.97603893280029 0.6758918762207031 12.08175945281982 1.155511856079102 11.92499923706055 1.583001136779785 L 10.09499931335449 5.547001361846924 L 7.426999092102051 11.32800197601318 C 7.241942405700684 11.744309425354 6.830862045288086 12.00266170501709 6.389384746551514 12.00266170501709 C 6.313060760498047 12.00266170501709 6.2358078956604 11.99493598937988 6.158679485321045 11.97897148132324 C 5.635419368743896 11.87066173553467 5.258379459381104 11.41232109069824 5.252999305725098 10.87800121307373 L 5.252999305725098 6.755001544952393 L 1.129999160766602 6.755001544952393 C 0.5956792831420898 6.749621391296387 0.1373395919799805 6.372581481933594 0.02902889251708984 5.849321365356445 C -0.07928085327148438 5.326061725616455 0.1917190551757813 4.798051357269287 0.6799993515014648 4.581001758575439 L 10.42499923706055 0.08400154113769531 L 10.42499923706055 0.08300113677978516 C 10.55621528625488 0.03488445281982422 10.69229602813721 0.01149749755859375 10.82726860046387 0.01150321960449219 Z" stroke="none" fill="#5f52f5"/></g></g></svg>