<svg xmlns="http://www.w3.org/2000/svg" width="23.17" height="25.443" viewBox="0 0 23.17 25.443"><defs><style>.a{fill:#fff;stroke:#472ee8;stroke-width:2px;}</style></defs><path class="a" d="M728.48-316.777a29.43,29.43,0,0,1-5.825.978,1.2,1.2,0,0,1-.184.779,2.9,2.9,0,0,1-2.47,1.4,2.9,2.9,0,0,1-2.452-1.389,1.225,1.225,0,0,1-.191-.794,29.484,29.484,0,0,1-5.864-.985,2.719,2.719,0,0,1-1.575-4.185c.327-.5.666-.988.993-1.486a7.064,7.064,0,0,0,1.161-3.783,8.081,8.081,0,0,1,4.778-7.548,6.331,6.331,0,0,1,1.013-.366,2.358,2.358,0,0,1-.095-.669,2.206,2.206,0,0,1,2.238-2.236,2.208,2.208,0,0,1,2.237,2.237,2.368,2.368,0,0,1-.075.6,5.745,5.745,0,0,1,.9.3c.219.106.436.2.641.314a7.981,7.981,0,0,1,4.371,7.077,8.061,8.061,0,0,0,1,4.026c.308.509.651,1,.979,1.494A2.725,2.725,0,0,1,728.48-316.777Z" transform="translate(-708.42 338.06)"/></svg>