<svg xmlns="http://www.w3.org/2000/svg" width="25.109" height="25.108" viewBox="0 0 25.109 25.108"><defs><style>.a{fill:none;stroke:#2e78e8;stroke-width:2px;}</style></defs><path class="a" d="M21.926,9.128,20.3,8.853a9.158,9.158,0,0,0-.652-1.574l.956-1.337A1.423,1.423,0,0,0,20.453,4.1L19.015,2.665a1.417,1.417,0,0,0-1.009-.42,1.4,1.4,0,0,0-.825.266l-1.342.956A9.063,9.063,0,0,0,14.207,2.8l-.27-1.6A1.426,1.426,0,0,0,12.527,0H10.495a1.426,1.426,0,0,0-1.41,1.192l-.28,1.641a8.933,8.933,0,0,0-1.569.661L5.909,2.539a1.426,1.426,0,0,0-1.839.154L2.626,4.132a1.429,1.429,0,0,0-.154,1.839l.965,1.356A8.946,8.946,0,0,0,2.8,8.906l-1.6.27A1.426,1.426,0,0,0,0,10.586v2.032a1.426,1.426,0,0,0,1.192,1.41l1.641.28a8.933,8.933,0,0,0,.661,1.569L2.544,17.2A1.423,1.423,0,0,0,2.7,19.039l1.439,1.439a1.417,1.417,0,0,0,1.009.42,1.4,1.4,0,0,0,.825-.265l1.356-.965a9.132,9.132,0,0,0,1.525.628l.27,1.622a1.426,1.426,0,0,0,1.41,1.192H12.57a1.426,1.426,0,0,0,1.41-1.192l.275-1.622a9.159,9.159,0,0,0,1.574-.652l1.337.956a1.423,1.423,0,0,0,1.839-.154l1.439-1.439a1.429,1.429,0,0,0,.154-1.839l-.956-1.342a9.093,9.093,0,0,0,.652-1.574l1.622-.27a1.426,1.426,0,0,0,1.192-1.41V10.538A1.409,1.409,0,0,0,21.926,9.128Zm-10.369,7.41a4.987,4.987,0,1,1,4.987-4.987A4.99,4.99,0,0,1,11.557,16.538Z" transform="translate(1 1)"/></svg>