<svg xmlns="http://www.w3.org/2000/svg" xmlns:xlink="http://www.w3.org/1999/xlink" width="215.522" height="168.184" viewBox="0 0 215.522 168.184">
  <defs>
    <linearGradient id="linear-gradient" x1="0.5" x2="0.755" y2="1" gradientUnits="objectBoundingBox">
      <stop offset="0" stop-color="#8633ff"/>
      <stop offset="1" stop-color="#2e78e8"/>
    </linearGradient>
    <linearGradient id="linear-gradient-2" x2="0.671" y2="0.865" xlink:href="#linear-gradient"/>
  </defs>
  <g id="undraw_mobile_app_0irr" transform="translate(0)">
    <path id="Pfad_80" data-name="Pfad 80" d="M274.6,169.03l-42.8-53.485a14.37,14.37,0,0,1-6.922,3.5c-8.058,1.587-15.927-3.916-17.576-12.29a15.523,15.523,0,0,1,5.359-15.122L198.065,73.392,114.923,144.45l76.533,95.638Z" transform="translate(-114.923 -73.392)" fill="#f2f2f2"/>
    <path id="Pfad_81" data-name="Pfad 81" d="M282.562,308.233,246.9,315.52a6.9,6.9,0,0,0-4.935,9.524l40.654,92.76a9.059,9.059,0,0,0,10.952,5.024l41.089-12.65a7.74,7.74,0,0,0,4.556-11.031L293.38,312.96A10.253,10.253,0,0,0,282.562,308.233Z" transform="translate(-213.292 -255.901)" fill="#3f3d56"/>
    <path id="Pfad_82" data-name="Pfad 82" d="M254.1,319.255l5.863-1.156h0a4.161,4.161,0,0,0,4.484,2.29l21.189-3.8a1.486,1.486,0,0,0,1.148-1.933l-.576-1.729,5.836-1.151a5.782,5.782,0,0,1,6.2,2.912l47.47,87.361a5.762,5.762,0,0,1-3.386,8.264l-40.457,12.305a7.246,7.246,0,0,1-8.717-3.96L251.076,325.12a4.215,4.215,0,0,1,3.029-5.865Z" transform="translate(-220.541 -258.731)" fill="url(#linear-gradient)"/>
    <line id="Linie_5" data-name="Linie 5" x1="8.664" y2="1.777" transform="translate(50.129 56.663)" fill="none" stroke="#2f2e41" stroke-miterlimit="10" stroke-width="2"/>
    <ellipse id="Ellipse_14" data-name="Ellipse 14" cx="0.889" cy="0.778" rx="0.889" ry="0.778" transform="translate(47.019 57.996)" fill="#2f2e41"/>
    <path id="Pfad_83" data-name="Pfad 83" d="M241.654,262.394l38.21,81.974,53.094-14.44v-1.777l-41.32-77.087-49.1,10.663-.233.175Z" transform="translate(-187.97 -195.29)" fill="#fff"/>
    <path id="Pfad_84" data-name="Pfad 84" d="M241.654,300.345l38.21,81.974,53.094-14.44V366.1l-52.872,14.884-37.777-81.132Z" transform="translate(-187.97 -233.241)" opacity="0.2"/>
    <line id="Linie_6" data-name="Linie 6" x1="39.099" y2="9.997" transform="translate(82.786 101.76)" fill="#3f3d56" stroke="#3f3d56" stroke-miterlimit="10" stroke-width="2"/>
    <line id="Linie_7" data-name="Linie 7" x1="39.321" y2="10.219" transform="translate(84.785 105.981)" fill="#3f3d56" stroke="#3f3d56" stroke-miterlimit="10" stroke-width="2"/>
    <line id="Linie_8" data-name="Linie 8" x1="24.659" y2="6.665" transform="translate(94.338 111.757)" fill="#3f3d56" stroke="#3f3d56" stroke-miterlimit="10" stroke-width="2"/>
    <path id="Pfad_85" data-name="Pfad 85" d="M434.654,559.284l3.6,7.84.176.38.613-.156,29.822-7.62v-1.111l-4-7.553-29.546,8-.264.089Z" transform="translate(-338.095 -428.644)" fill="url(#linear-gradient-2)"/>
    <path id="Pfad_86" data-name="Pfad 86" d="M434.654,585.73l3.6,7.84.176.38.613-.156,29.822-7.62v-1.111l-29.991,8-3.819-7.464Z" transform="translate(-338.095 -455.091)" opacity="0.2"/>
    <line id="Linie_9" data-name="Linie 9" x2="197.271" transform="translate(18.25 167.184)" fill="none" stroke="#3f3d56" stroke-miterlimit="10" stroke-width="2"/>
    <path id="Pfad_87" data-name="Pfad 87" d="M487.338,420.487c-2.544-6.648-9.569-10.458-15.208-8.663-5.169,1.645-7.293,7.485-5.12,13.162s8.084,9.739,13.607,9.017C486.642,433.217,489.882,427.136,487.338,420.487Z" transform="translate(-388.136 -336.296)" fill="#3f3d56" stroke="#3f3d56" stroke-miterlimit="10" stroke-width="2"/>
    <path id="Pfad_88" data-name="Pfad 88" d="M487.338,420.487c-2.544-6.648-9.569-10.458-15.208-8.663-5.169,1.645-7.293,7.485-5.12,13.162s8.084,9.739,13.607,9.017C486.642,433.217,489.882,427.136,487.338,420.487Z" transform="translate(-388.136 -336.296)" opacity="0.2"/>
    <path id="Pfad_89" data-name="Pfad 89" d="M492.338,415.487c-2.544-6.648-9.569-10.458-15.208-8.663-5.169,1.645-7.293,7.485-5.12,13.162s8.084,9.739,13.607,9.017C491.642,428.217,494.882,422.136,492.338,415.487Z" transform="translate(-392.025 -332.407)" fill="#3f3d56" stroke="#3f3d56" stroke-miterlimit="10" stroke-width="2"/>
    <circle id="Ellipse_15" data-name="Ellipse 15" cx="3.278" cy="3.278" r="3.278" transform="translate(134.329 9.366)" fill="none" stroke="#3f3d56" stroke-miterlimit="10" stroke-width="2"/>
    <circle id="Ellipse_16" data-name="Ellipse 16" cx="3.278" cy="3.278" r="3.278" transform="translate(177.649 104.669)" fill="none" stroke="#3f3d56" stroke-miterlimit="10" stroke-width="2"/>
    <circle id="Ellipse_17" data-name="Ellipse 17" cx="3.278" cy="3.278" r="3.278" transform="translate(34.642 17.586)" fill="none" stroke="#3f3d56" stroke-miterlimit="10" stroke-width="2"/>
    <circle id="Ellipse_18" data-name="Ellipse 18" cx="12.066" cy="12.066" r="12.066" transform="translate(94.428 18.975)" fill="#f2f2f2"/>
    <circle id="Ellipse_19" data-name="Ellipse 19" cx="8.175" cy="8.175" r="8.175" transform="translate(145.766 44.012)" fill="#2f2e41"/>
    <path id="Pfad_90" data-name="Pfad 90" d="M719.431,692.953l1.555,6.665h-3.777l-1.555-7.553Z" transform="translate(-556.67 -538.32)" fill="#9f616a"/>
    <path id="Pfad_91" data-name="Pfad 91" d="M637.431,696.064v6.22l-3.777.444v-6.665Z" transform="translate(-492.887 -541.432)" fill="#9f616a"/>
    <path id="Pfad_92" data-name="Pfad 92" d="M826.908,450.68s-.444,9.553-.889,10.219-4.443,10.219-4.443,10.219l-2-6.22s3.11-5.109,2.666-8a33.2,33.2,0,0,1-.164-6.442Z" transform="translate(-663.037 -366.693)" fill="#9f616a"/>
    <circle id="Ellipse_20" data-name="Ellipse 20" cx="6.22" cy="6.22" r="6.22" transform="translate(144.988 48.443)" fill="#9f616a"/>
    <path id="Pfad_93" data-name="Pfad 93" d="M792.13,322.456s-.222,8.886,1.333,10.219-8.886.222-8.886.222,2.221-6.22.444-7.553S792.13,322.456,792.13,322.456Z" transform="translate(-635.812 -267.126)" fill="#9f616a"/>
    <path id="Pfad_94" data-name="Pfad 94" d="M735.013,359.628s1.333-2.444,3.11-2.221,7.553.666,7.775,1.111a13.276,13.276,0,0,0,1.333,2.444c.444.444,3.777,1.111,4,3.777s-8,18.883-8,18.883,1.111,3.777.889,4.665,1.111,3.554.889,4.665,3.332,7.775,1.555,16.439v14s6,24.215,4.221,25.992-7.775.666-8.886,0-5.776-34.211-5.776-34.211l-2.222-11.33-.222,24.881s.444,20.882-1.111,21.549-7.553.889-8-.444c-.346-1.04-2.044-28.7-2.775-40.824a45.3,45.3,0,0,1,.978-12.479c.925-4.194,2.267-9.121,3.8-11.121,2.888-3.777,4.665-15.773,4.665-15.773l-3.777-6.887s2.222-2.221,3.554-2.221A18.3,18.3,0,0,0,735.013,359.628Z" transform="translate(-586.915 -294.301)" fill="#2f2e41"/>
    <path id="Pfad_95" data-name="Pfad 95" d="M833.4,383.456l1.172.8s.828,14.309.161,15.2-5.3.455-5.649-.328S833.4,383.456,833.4,383.456Z" transform="translate(-670.417 -314.575)" fill="#2f2e41"/>
    <path id="Pfad_96" data-name="Pfad 96" d="M689.162,437.671c.65,4.511,1.22,8.527-2.1,12.16a62.4,62.4,0,0,1-11.226,9.724c-.408,1.08-6.395,9.013-6.7,5.849s1.764-5.645,4.7-8.321,7.052-8.482,9.372-11.668,1.365-5.172,1.284-7.833S688.249,437.7,689.162,437.671Z" transform="translate(-545.99 -355.779)" fill="#9f616a"/>
    <path id="Pfad_97" data-name="Pfad 97" d="M737.62,781.255s-.222,2.488-.889,3.155-2.444,1.555-2.221,4,1.666,2.555,1.666,2.555l-.111-.555.666.222.111.333h6.22a20.025,20.025,0,0,0-.111-3.443c-.222-1.111-.222-6.443-.889-6.22s-2.444.444-2.888,1.333S737.4,783.21,737.62,781.255Z" transform="translate(-596.853 -624.002)" fill="#2f2e41"/>
    <path id="Pfad_98" data-name="Pfad 98" d="M831.423,781.255s.222,2.488.889,3.155,2.444,1.555,2.221,4-1.666,2.555-1.666,2.555l.111-.555-.666.222-.111.333h-6.22a20.025,20.025,0,0,1,.111-3.443c.222-1.111.222-6.443.889-6.22s2.444.444,2.888,1.333S831.645,783.21,831.423,781.255Z" transform="translate(-667.996 -624.002)" fill="#2f2e41"/>
    <path id="Pfad_99" data-name="Pfad 99" d="M740.788,378.456l-3.11.666s0,4.887-.889,6.887-2.444,6.665-1.777,6.887,6.887,3.332,7.331,1.555S743.9,378.456,740.788,378.456Z" transform="translate(-597.132 -310.685)" fill="#2f2e41"/>
    <circle id="Ellipse_21" data-name="Ellipse 21" cx="8.175" cy="8.175" r="8.175" transform="translate(154.622 33.248)" fill="#2f2e41"/>
    <path id="Pfad_100" data-name="Pfad 100" d="M835.281,263.559a8.176,8.176,0,0,1-12.625-4.293,8.176,8.176,0,1,0,15.948-3.353A8.172,8.172,0,0,1,835.281,263.559Z" transform="translate(-665.432 -215.366)" fill="#2f2e41"/>
    <circle id="Ellipse_22" data-name="Ellipse 22" cx="5.995" cy="5.995" r="5.995" transform="translate(150.126 47.555)" fill="#2f2e41"/>
    <ellipse id="Ellipse_23" data-name="Ellipse 23" cx="5.314" cy="4.156" rx="5.314" ry="4.156" transform="translate(145.766 47.146)" fill="#2f2e41"/>
    <ellipse id="Ellipse_24" data-name="Ellipse 24" cx="1.009" cy="1.784" rx="1.009" ry="1.784" transform="translate(148.654 53.776)" fill="#a0616a"/>
  </g>
</svg>
